<svg xmlns="http://www.w3.org/2000/svg" version="1.1" xmlns:xlink="http://www.w3.org/1999/xlink" xmlns:svgjs="http://svgjs.dev/svgjs" width="2000" height="3374" viewBox="0 0 2000 3374"><g transform="matrix(1,0,0,1,-3.3815670219083813,-5.4419354838710206)"><svg viewBox="0 0 147 248" data-background-color="#ffffff" preserveAspectRatio="xMidYMid meet" height="3374" width="2000" xmlns="http://www.w3.org/2000/svg" xmlns:xlink="http://www.w3.org/1999/xlink"><g id="tight-bounds" transform="matrix(1,0,0,1,0.2485451761102695,0.4000000000000057)"><svg viewBox="0 0 146.5029096477795 247.2" height="247.2" width="146.5029096477795"><g><svg viewBox="0 0 146.5029096477795 247.2" height="247.2" width="146.5029096477795"><g><svg viewBox="0 0 146.5029096477795 247.2" height="247.2" width="146.5029096477795"><g id="textblocktransform"><svg viewBox="0 0 146.5029096477795 247.2" height="247.2" width="146.5029096477795" id="textblock"><g><svg viewBox="0 0 146.5029096477795 247.2" height="247.2" width="146.5029096477795"><g transform="matrix(1,0,0,1,0,0)"><svg width="146.5029096477795" viewBox="2.1 -32.3 19.349999999999998 32.65" height="247.2" data-palette-color="#535cd1"><path d="M13.35-32.3Q16.8-32.3 20.5-30.8L20.5-30.8 19.85-26.95 19.15-26.75Q17.7-27.85 16.07-28.45 14.45-29.05 12.85-29.05L12.85-29.05Q11-29.05 9.63-28.3 8.25-27.55 7.53-26.35 6.8-25.15 6.8-23.85L6.8-23.85Q6.8-22.5 7.63-21.48 8.45-20.45 9.7-19.7 10.95-18.95 13.1-17.9L13.1-17.9Q15.8-16.65 17.45-15.58 19.1-14.5 20.28-12.85 21.45-11.2 21.45-8.85L21.45-8.85Q21.45-6.35 20.1-4.25 18.75-2.15 16.3-0.9 13.85 0.35 10.7 0.35L10.7 0.35Q8.6 0.35 6.33-0.23 4.05-0.8 2.1-1.9L2.1-1.9 2.6-6 3.15-6.25Q4.9-4.55 7.03-3.73 9.15-2.9 11.1-2.9L11.1-2.9Q13-2.9 14.48-3.65 15.95-4.4 16.73-5.65 17.5-6.9 17.5-8.3L17.5-8.3Q17.5-10.4 15.9-11.68 14.3-12.95 11.05-14.45L11.05-14.45Q8.4-15.75 6.8-16.78 5.2-17.8 4.05-19.43 2.9-21.05 2.9-23.4L2.9-23.4Q2.9-25.85 4.23-27.9 5.55-29.95 7.93-31.13 10.3-32.3 13.35-32.3L13.35-32.3Z" opacity="1" transform="matrix(1,0,0,1,0,0)" fill="#535cd1" class="wordmark-text-0" data-fill-palette-color="primary" id="text-0"></path></svg></g></svg></g></svg></g></svg></g><g></g></svg></g><defs></defs></svg><rect width="146.5029096477795" height="247.2" fill="none" stroke="none" visibility="hidden"></rect></g></svg></g></svg>