<svg xmlns="http://www.w3.org/2000/svg" version="1.1" xmlns:xlink="http://www.w3.org/1999/xlink" xmlns:svgjs="http://svgjs.dev/svgjs" width="2000" height="1500" viewBox="0 0 2000 1500"><rect width="2000" height="1500" fill="#040046"></rect><g transform="matrix(0.75,0,0,0.75,249.090909090909,278.98548387096776)"><svg viewBox="0 0 396 248" data-background-color="#040046" preserveAspectRatio="xMidYMid meet" height="1252" width="2000" xmlns="http://www.w3.org/2000/svg" xmlns:xlink="http://www.w3.org/1999/xlink"><g id="tight-bounds" transform="matrix(1,0,0,1,0.2400000000000091,0.4000000000000057)"><svg viewBox="0 0 395.52 247.2" height="247.2" width="395.52"><rect width="395.52" height="247.2" fill="url(#8736159b-3985-44ba-8352-327cf3c48209)" mask="url(#cfda5ab6-d4a7-482f-b05c-a19ee868afce)" data-fill-palette-color="tertiary"></rect><g><svg></svg></g><g><svg viewBox="0 0 395.52 247.2" height="247.2" width="395.52"><g transform="matrix(1,0,0,1,105.74926480814118,47.215199999999996)"><svg viewBox="0 0 184.02147038371763 152.7696" height="152.7696" width="184.02147038371763"><g><svg viewBox="0 0 184.02147038371763 152.7696" height="152.7696" width="184.02147038371763"><g><svg viewBox="0 0 101.0975294117647 152.7696" height="152.7696" width="101.0975294117647"><g id="textblocktransform"><svg viewBox="0 0 101.0975294117647 152.7696" height="152.7696" width="101.0975294117647" id="textblock"><g><svg viewBox="0 0 101.0975294117647 152.7696" height="152.7696" width="101.0975294117647"><g transform="matrix(1,0,0,1,0,0)"><svg width="101.0975294117647" viewBox="2.73 -36.04 24.169999999999998 36.53" height="152.7696" data-palette-color="url(#ec090581-08b9-4247-b395-78ef21b98817)"></svg></g></svg></g></svg></g></svg></g><g transform="matrix(1,0,0,1,137.1627655013647,52.96640089215095)"><svg viewBox="0 0 46.85870488235294 46.836798215698096" height="46.836798215698096" width="46.85870488235294"><g><svg xmlns="http://www.w3.org/2000/svg" xmlns:xlink="http://www.w3.org/1999/xlink" version="1.1" x="0" y="0" viewBox="0.7607695154586737 0.7749999999999999 30.439230484541326 30.425" enable-background="new 0 0 32 32" xml:space="preserve" height="46.836798215698096" width="46.85870488235294" class="icon-icon-0" data-fill-palette-color="accent" id="icon-0"></svg></g></svg></g></svg></g></svg></g><g><path d="M215.611 0c30.402 0 58.24 10.976 79.768 29.183l-11.147 0c-19.26-14.022-42.974-22.294-68.621-22.295-25.647 0-49.361 8.272-68.621 22.295l-11.147 0c21.528-18.206 49.366-29.183 79.768-29.183zM339.211 123.6c0 33.876-13.628 64.569-35.702 86.895l0-10.111c17.942-20.522 28.813-47.384 28.813-76.784 0-29.401-10.871-56.262-28.813-76.784l0-10.111c22.073 22.326 35.701 53.019 35.702 86.895zM215.611 247.2c-30.402 0-58.24-10.976-79.768-29.183l11.147 0c19.26 14.022 42.974 22.294 68.621 22.295 25.647 0 49.361-8.272 68.621-22.295l11.147 0c-21.528 18.206-49.366 29.183-79.768 29.183z" fill="url(#8736159b-3985-44ba-8352-327cf3c48209)" stroke="transparent" data-fill-palette-color="tertiary"></path></g></svg></g><defs></defs><mask id="99aee472-442c-490b-8ade-f79d4798fbb2"><g id="SvgjsG2237"><svg viewBox="0 0 395.52 247.2" height="247.2" width="395.52"><g><svg></svg></g><g><svg viewBox="0 0 395.52 247.2" height="247.2" width="395.52"><g transform="matrix(1,0,0,1,105.74926480814118,47.215199999999996)"><svg viewBox="0 0 184.02147038371763 152.7696" height="152.7696" width="184.02147038371763"><g><svg viewBox="0 0 184.02147038371763 152.7696" height="152.7696" width="184.02147038371763"><g><svg viewBox="0 0 101.0975294117647 152.7696" height="152.7696" width="101.0975294117647"><g id="SvgjsG2236"><svg viewBox="0 0 101.0975294117647 152.7696" height="152.7696" width="101.0975294117647" id="SvgjsSvg2235"><g><svg viewBox="0 0 101.0975294117647 152.7696" height="152.7696" width="101.0975294117647"><g transform="matrix(1,0,0,1,0,0)"><svg width="101.0975294117647" viewBox="2.73 -36.04 24.169999999999998 36.53" height="152.7696" data-palette-color="url(#ec090581-08b9-4247-b395-78ef21b98817)"><path d="M14.62 0.49L14.62 0.49Q11.79 0.49 9.47-0.17 7.15-0.83 5.44-1.89 3.74-2.95 2.73-4.17L2.73-4.17 5.35-6.69 5.66-6.69Q7.4-4.98 9.78-4.13 12.16-3.27 14.6-3.27L14.6-3.27Q17.92-3.27 20.15-4.65 22.39-6.03 22.39-9.38L22.39-9.38Q22.39-11.06 21.78-12.08 21.17-13.11 19.68-13.95 18.19-14.79 15.58-15.87L15.58-15.87 10.62-17.92Q8.18-18.95 6.43-19.95 4.69-20.95 3.77-22.45 2.86-23.95 2.86-26.44L2.86-26.44Q2.86-29.27 3.87-31.14 4.88-33.01 6.62-34.08 8.35-35.16 10.56-35.6 12.77-36.04 15.14-36.04L15.14-36.04Q17.5-36.04 19.6-35.49 21.7-34.94 23.44-33.91 25.17-32.89 26.39-31.47L26.39-31.47 23.85-28.93 23.49-28.93Q22.09-30.54 19.86-31.43 17.63-32.32 14.94-32.32L14.94-32.32Q12.96-32.32 11.29-31.84 9.62-31.35 8.62-30.19 7.62-29.03 7.62-26.95L7.62-26.95Q7.62-25.68 8.07-24.82 8.52-23.95 9.63-23.25 10.74-22.56 12.7-21.75L12.7-21.75 17.7-19.73Q20.61-18.55 22.67-17.37 24.73-16.19 25.82-14.36 26.9-12.52 26.9-9.35L26.9-9.35Q26.9-6.57 25.84-4.68 24.78-2.78 23-1.65 21.22-0.51 19.04-0.01 16.87 0.49 14.62 0.49Z" opacity="1" transform="matrix(1,0,0,1,0,0)" fill="white" class="wordmark-text-0" id="SvgjsPath2234"></path></svg></g></svg></g></svg></g></svg></g><g transform="matrix(1,0,0,1,137.1627655013647,52.96640089215095)"><svg viewBox="0 0 46.85870488235294 46.836798215698096" height="46.836798215698096" width="46.85870488235294"><g><svg xmlns="http://www.w3.org/2000/svg" xmlns:xlink="http://www.w3.org/1999/xlink" version="1.1" x="0" y="0" viewBox="0.7607695154586737 0.7749999999999999 30.439230484541326 30.425" enable-background="new 0 0 32 32" xml:space="preserve" height="46.836798215698096" width="46.85870488235294" class="icon-icon-0" data-fill-palette-color="accent" id="SvgjsSvg2233"><g fill="black"><g fill="black"><path fill="black" d="M1.5 31.2C1.3 31.2 1.1 31.1 1 31 0.8 30.8 0.7 30.6 0.8 30.3L4.5 11.2C4.6 10.9 4.8 10.6 5.1 10.6L14.7 9.3C14.9 9.3 15.2 9.3 15.3 9.5L22.5 16.7C22.7 16.9 22.7 17.1 22.7 17.3L21.4 26.9C21.4 27.2 21.1 27.5 20.8 27.5L1.6 31.2zM5.8 12.1L2.4 29.6 19.9 26.2 21.1 17.5 14.4 10.8z"></path></g><g fill="black"><rect x="5.2" y="19.8" transform="matrix(-0.7071 -0.7071 0.7071 -0.7071 -8.3465 48.7211)" fill="black" width="1.5" height="12.6"></rect></g><g fill="black"><path fill="black" d="M12 23.1C11.2 23.1 10.4 22.8 9.8 22.2S8.9 20.9 8.9 20C8.9 19.2 9.2 18.4 9.8 17.8 11 16.6 13 16.6 14.1 17.8 15.3 19 15.3 20.9 14.1 22.1 13.6 22.8 12.8 23.1 12 23.1M12 18.4C11.6 18.4 11.2 18.6 10.9 18.9S10.4 19.6 10.4 20 10.6 20.8 10.9 21.1C11.5 21.7 12.5 21.7 13.1 21.1S13.7 19.5 13.1 18.9C12.8 18.6 12.4 18.4 12 18.4"></path></g><g fill="black"><path fill="black" d="M23.8 18.7C22.9 18.7 22 18.3 21.4 17.7L14.3 10.6C13 9.3 13 7.1 14.3 5.8L19.1 1C19.4 0.7 19.9 0.7 20.2 1L31 11.8C31.1 11.9 31.2 12.1 31.2 12.3S31.1 12.7 31 12.8L26.1 17.7C25.5 18.4 24.7 18.7 23.8 18.7M19.7 2.6L15.4 6.9C14.7 7.6 14.7 8.9 15.4 9.6L22.5 16.7C23.2 17.4 24.5 17.4 25.2 16.7L29.5 12.4z"></path></g></g></svg></g></svg></g></svg></g></svg></g><g><path d="M215.611 0c30.402 0 58.24 10.976 79.768 29.183l-11.147 0c-19.26-14.022-42.974-22.294-68.621-22.295-25.647 0-49.361 8.272-68.621 22.295l-11.147 0c21.528-18.206 49.366-29.183 79.768-29.183zM339.211 123.6c0 33.876-13.628 64.569-35.702 86.895l0-10.111c17.942-20.522 28.813-47.384 28.813-76.784 0-29.401-10.871-56.262-28.813-76.784l0-10.111c22.073 22.326 35.701 53.019 35.702 86.895zM215.611 247.2c-30.402 0-58.24-10.976-79.768-29.183l11.147 0c19.26 14.022 42.974 22.294 68.621 22.295 25.647 0 49.361-8.272 68.621-22.295l11.147 0c-21.528 18.206-49.366 29.183-79.768 29.183z" fill="black" stroke="transparent"></path></g></svg></g><defs><mask></mask></defs></svg><rect width="395.52" height="247.2" fill="black" stroke="none" visibility="hidden"></rect></g></mask><linearGradient x1="0" x2="1" y1="0.578" y2="0.595" id="ec090581-08b9-4247-b395-78ef21b98817"><stop stop-color="#6ee2f5" offset="0"></stop><stop stop-color="#6454f0" offset="1"></stop></linearGradient><rect width="395.52" height="247.2" fill="url(#ec090581-08b9-4247-b395-78ef21b98817)" mask="url(#99aee472-442c-490b-8ade-f79d4798fbb2)" data-fill-palette-color="primary"></rect><mask id="62b0e1ed-9020-42ec-b1ec-aca68306216c"><g id="SvgjsG2256"><svg viewBox="0 0 395.52 247.2" height="247.2" width="395.52"><g><svg></svg></g><g><svg viewBox="0 0 395.52 247.2" height="247.2" width="395.52"><g transform="matrix(1,0,0,1,105.74926480814118,47.215199999999996)"><svg viewBox="0 0 184.02147038371763 152.7696" height="152.7696" width="184.02147038371763"><g><svg viewBox="0 0 184.02147038371763 152.7696" height="152.7696" width="184.02147038371763"><g><svg viewBox="0 0 101.0975294117647 152.7696" height="152.7696" width="101.0975294117647"><g id="SvgjsG2255"><svg viewBox="0 0 101.0975294117647 152.7696" height="152.7696" width="101.0975294117647" id="SvgjsSvg2254"><g><svg viewBox="0 0 101.0975294117647 152.7696" height="152.7696" width="101.0975294117647"><g transform="matrix(1,0,0,1,0,0)"><svg width="101.0975294117647" viewBox="2.73 -36.04 24.169999999999998 36.53" height="152.7696" data-palette-color="url(#ec090581-08b9-4247-b395-78ef21b98817)"></svg></g></svg></g></svg></g></svg></g><g transform="matrix(1,0,0,1,137.1627655013647,52.96640089215095)"><svg viewBox="0 0 46.85870488235294 46.836798215698096" height="46.836798215698096" width="46.85870488235294"><g><svg xmlns="http://www.w3.org/2000/svg" xmlns:xlink="http://www.w3.org/1999/xlink" version="1.1" x="0" y="0" viewBox="0.7607695154586737 0.7749999999999999 30.439230484541326 30.425" enable-background="new 0 0 32 32" xml:space="preserve" height="46.836798215698096" width="46.85870488235294" class="icon-icon-0" data-fill-palette-color="accent" id="SvgjsSvg2253"><g fill="white"><g fill="white"><path fill="white" d="M1.5 31.2C1.3 31.2 1.1 31.1 1 31 0.8 30.8 0.7 30.6 0.8 30.3L4.5 11.2C4.6 10.9 4.8 10.6 5.1 10.6L14.7 9.3C14.9 9.3 15.2 9.3 15.3 9.5L22.5 16.7C22.7 16.9 22.7 17.1 22.7 17.3L21.4 26.9C21.4 27.2 21.1 27.5 20.8 27.5L1.6 31.2zM5.8 12.1L2.4 29.6 19.9 26.2 21.1 17.5 14.4 10.8z"></path></g><g fill="white"><rect x="5.2" y="19.8" transform="matrix(-0.7071 -0.7071 0.7071 -0.7071 -8.3465 48.7211)" fill="white" width="1.5" height="12.6"></rect></g><g fill="white"><path fill="white" d="M12 23.1C11.2 23.1 10.4 22.8 9.8 22.2S8.9 20.9 8.9 20C8.9 19.2 9.2 18.4 9.8 17.8 11 16.6 13 16.6 14.1 17.8 15.3 19 15.3 20.9 14.1 22.1 13.6 22.8 12.8 23.1 12 23.1M12 18.4C11.6 18.4 11.2 18.6 10.9 18.9S10.4 19.6 10.4 20 10.6 20.8 10.9 21.1C11.5 21.7 12.5 21.7 13.1 21.1S13.7 19.5 13.1 18.9C12.8 18.6 12.4 18.4 12 18.4"></path></g><g fill="white"><path fill="white" d="M23.8 18.7C22.9 18.7 22 18.3 21.4 17.7L14.3 10.6C13 9.3 13 7.1 14.3 5.8L19.1 1C19.4 0.7 19.9 0.7 20.2 1L31 11.8C31.1 11.9 31.2 12.1 31.2 12.3S31.1 12.7 31 12.8L26.1 17.7C25.5 18.4 24.7 18.7 23.8 18.7M19.7 2.6L15.4 6.9C14.7 7.6 14.7 8.9 15.4 9.6L22.5 16.7C23.2 17.4 24.5 17.4 25.2 16.7L29.5 12.4z"></path></g></g></svg></g></svg></g></svg></g></svg></g><g><path d="M215.611 0c30.402 0 58.24 10.976 79.768 29.183l-11.147 0c-19.26-14.022-42.974-22.294-68.621-22.295-25.647 0-49.361 8.272-68.621 22.295l-11.147 0c21.528-18.206 49.366-29.183 79.768-29.183zM339.211 123.6c0 33.876-13.628 64.569-35.702 86.895l0-10.111c17.942-20.522 28.813-47.384 28.813-76.784 0-29.401-10.871-56.262-28.813-76.784l0-10.111c22.073 22.326 35.701 53.019 35.702 86.895zM215.611 247.2c-30.402 0-58.24-10.976-79.768-29.183l11.147 0c19.26 14.022 42.974 22.294 68.621 22.295 25.647 0 49.361-8.272 68.621-22.295l11.147 0c-21.528 18.206-49.366 29.183-79.768 29.183z" fill="black" stroke="transparent"></path></g></svg></g><defs><mask></mask></defs><mask><g id="SvgjsG2252"><svg viewBox="0 0 395.52 247.2" height="247.2" width="395.52"><g><svg></svg></g><g><svg viewBox="0 0 395.52 247.2" height="247.2" width="395.52"><g transform="matrix(1,0,0,1,105.74926480814118,47.215199999999996)"><svg viewBox="0 0 184.02147038371763 152.7696" height="152.7696" width="184.02147038371763"><g><svg viewBox="0 0 184.02147038371763 152.7696" height="152.7696" width="184.02147038371763"><g><svg viewBox="0 0 101.0975294117647 152.7696" height="152.7696" width="101.0975294117647"><g id="SvgjsG2251"><svg viewBox="0 0 101.0975294117647 152.7696" height="152.7696" width="101.0975294117647" id="SvgjsSvg2250"><g><svg viewBox="0 0 101.0975294117647 152.7696" height="152.7696" width="101.0975294117647"><g transform="matrix(1,0,0,1,0,0)"><svg width="101.0975294117647" viewBox="2.73 -36.04 24.169999999999998 36.53" height="152.7696" data-palette-color="url(#ec090581-08b9-4247-b395-78ef21b98817)"><path d="M14.62 0.49L14.62 0.49Q11.79 0.49 9.47-0.17 7.15-0.83 5.44-1.89 3.74-2.95 2.73-4.17L2.73-4.17 5.35-6.69 5.66-6.69Q7.4-4.98 9.78-4.13 12.16-3.27 14.6-3.27L14.6-3.27Q17.92-3.27 20.15-4.65 22.39-6.03 22.39-9.38L22.39-9.38Q22.39-11.06 21.78-12.08 21.17-13.11 19.68-13.95 18.19-14.79 15.58-15.87L15.58-15.87 10.62-17.92Q8.18-18.95 6.43-19.95 4.69-20.95 3.77-22.45 2.86-23.95 2.86-26.44L2.86-26.44Q2.86-29.27 3.87-31.14 4.88-33.01 6.62-34.08 8.35-35.16 10.56-35.6 12.77-36.04 15.14-36.04L15.14-36.04Q17.5-36.04 19.6-35.49 21.7-34.94 23.44-33.91 25.17-32.89 26.39-31.47L26.39-31.47 23.85-28.93 23.49-28.93Q22.09-30.54 19.86-31.43 17.63-32.32 14.94-32.32L14.94-32.32Q12.96-32.32 11.29-31.84 9.62-31.35 8.62-30.19 7.62-29.03 7.62-26.95L7.62-26.95Q7.62-25.68 8.07-24.82 8.52-23.95 9.63-23.25 10.74-22.56 12.7-21.75L12.7-21.75 17.7-19.73Q20.61-18.55 22.67-17.37 24.73-16.19 25.82-14.36 26.9-12.52 26.9-9.35L26.9-9.35Q26.9-6.57 25.84-4.68 24.78-2.78 23-1.65 21.22-0.51 19.04-0.01 16.87 0.49 14.62 0.49Z" opacity="1" transform="matrix(1,0,0,1,0,0)" fill="black" class="wordmark-text-0" id="SvgjsPath2249"></path></svg></g></svg></g></svg></g></svg></g><g transform="matrix(1,0,0,1,137.1627655013647,52.96640089215095)"><svg viewBox="0 0 46.85870488235294 46.836798215698096" height="46.836798215698096" width="46.85870488235294"><g><svg xmlns="http://www.w3.org/2000/svg" xmlns:xlink="http://www.w3.org/1999/xlink" version="1.1" x="0" y="0" viewBox="0.7607695154586737 0.7749999999999999 30.439230484541326 30.425" enable-background="new 0 0 32 32" xml:space="preserve" height="46.836798215698096" width="46.85870488235294" class="icon-icon-0" data-fill-palette-color="accent" id="SvgjsSvg2248"><g fill="black"><g fill="black"><path fill="black" d="M1.5 31.2C1.3 31.2 1.1 31.1 1 31 0.8 30.8 0.7 30.6 0.8 30.3L4.5 11.2C4.6 10.9 4.8 10.6 5.1 10.6L14.7 9.3C14.9 9.3 15.2 9.3 15.3 9.5L22.5 16.7C22.7 16.9 22.7 17.1 22.7 17.3L21.4 26.9C21.4 27.2 21.1 27.5 20.8 27.5L1.6 31.2zM5.8 12.1L2.4 29.6 19.9 26.2 21.1 17.5 14.4 10.8z"></path></g><g fill="black"><rect x="5.2" y="19.8" transform="matrix(-0.7071 -0.7071 0.7071 -0.7071 -8.3465 48.7211)" fill="black" width="1.5" height="12.6"></rect></g><g fill="black"><path fill="black" d="M12 23.1C11.2 23.1 10.4 22.8 9.8 22.2S8.9 20.9 8.9 20C8.9 19.2 9.2 18.4 9.8 17.8 11 16.6 13 16.6 14.1 17.8 15.3 19 15.3 20.9 14.1 22.1 13.6 22.8 12.8 23.1 12 23.1M12 18.4C11.6 18.4 11.2 18.6 10.9 18.9S10.4 19.6 10.4 20 10.6 20.8 10.9 21.1C11.5 21.7 12.5 21.7 13.1 21.1S13.7 19.5 13.1 18.9C12.8 18.6 12.4 18.4 12 18.4"></path></g><g fill="black"><path fill="black" d="M23.8 18.7C22.9 18.7 22 18.3 21.4 17.7L14.3 10.6C13 9.3 13 7.1 14.3 5.8L19.1 1C19.4 0.7 19.9 0.7 20.2 1L31 11.8C31.1 11.9 31.2 12.1 31.2 12.3S31.1 12.7 31 12.8L26.1 17.7C25.5 18.4 24.7 18.7 23.8 18.7M19.7 2.6L15.4 6.9C14.7 7.6 14.7 8.9 15.4 9.6L22.5 16.7C23.2 17.4 24.5 17.4 25.2 16.7L29.5 12.4z"></path></g></g></svg></g></svg></g></svg></g></svg></g><g><path d="M215.611 0c30.402 0 58.24 10.976 79.768 29.183l-11.147 0c-19.26-14.022-42.974-22.294-68.621-22.295-25.647 0-49.361 8.272-68.621 22.295l-11.147 0c21.528-18.206 49.366-29.183 79.768-29.183zM339.211 123.6c0 33.876-13.628 64.569-35.702 86.895l0-10.111c17.942-20.522 28.813-47.384 28.813-76.784 0-29.401-10.871-56.262-28.813-76.784l0-10.111c22.073 22.326 35.701 53.019 35.702 86.895zM215.611 247.2c-30.402 0-58.24-10.976-79.768-29.183l11.147 0c19.26 14.022 42.974 22.294 68.621 22.295 25.647 0 49.361-8.272 68.621-22.295l11.147 0c-21.528 18.206-49.366 29.183-79.768 29.183z" fill="black" stroke="transparent"></path></g></svg></g><defs><mask></mask></defs></svg><rect width="395.52" height="247.2" fill="black" stroke="none" visibility="hidden"></rect></g></mask></svg><rect width="395.52" height="247.2" fill="black" stroke="none" visibility="hidden"></rect></g></mask><linearGradient x1="0" x2="1" y1="0.578" y2="0.595" id="2262eb05-31a0-44cd-a239-e45836e9aca8"><stop stop-color="#6ee2f5" offset="0"></stop><stop stop-color="#6454f0" offset="1"></stop></linearGradient><rect width="395.52" height="247.2" fill="url(#2262eb05-31a0-44cd-a239-e45836e9aca8)" mask="url(#62b0e1ed-9020-42ec-b1ec-aca68306216c)" data-fill-palette-color="accent"></rect><mask id="cfda5ab6-d4a7-482f-b05c-a19ee868afce"><g id="SvgjsG2274"><svg viewBox="0 0 395.52 247.2" height="247.2" width="395.52"><g><svg></svg></g><g><svg viewBox="0 0 395.52 247.2" height="247.2" width="395.52"><g transform="matrix(1,0,0,1,105.74926480814118,47.215199999999996)"><svg viewBox="0 0 184.02147038371763 152.7696" height="152.7696" width="184.02147038371763"><g><svg viewBox="0 0 184.02147038371763 152.7696" height="152.7696" width="184.02147038371763"><g><svg viewBox="0 0 101.0975294117647 152.7696" height="152.7696" width="101.0975294117647"><g id="SvgjsG2273"><svg viewBox="0 0 101.0975294117647 152.7696" height="152.7696" width="101.0975294117647" id="SvgjsSvg2272"><g><svg viewBox="0 0 101.0975294117647 152.7696" height="152.7696" width="101.0975294117647"><g transform="matrix(1,0,0,1,0,0)"><svg width="101.0975294117647" viewBox="2.73 -36.04 24.169999999999998 36.53" height="152.7696" data-palette-color="url(#ec090581-08b9-4247-b395-78ef21b98817)"></svg></g></svg></g></svg></g></svg></g><g transform="matrix(1,0,0,1,137.1627655013647,52.96640089215095)"><svg viewBox="0 0 46.85870488235294 46.836798215698096" height="46.836798215698096" width="46.85870488235294"><g><svg xmlns="http://www.w3.org/2000/svg" xmlns:xlink="http://www.w3.org/1999/xlink" version="1.1" x="0" y="0" viewBox="0.7607695154586737 0.7749999999999999 30.439230484541326 30.425" enable-background="new 0 0 32 32" xml:space="preserve" height="46.836798215698096" width="46.85870488235294" class="icon-icon-0" data-fill-palette-color="accent" id="SvgjsSvg2271"></svg></g></svg></g></svg></g></svg></g><g><path d="M215.611 0c30.402 0 58.24 10.976 79.768 29.183l-11.147 0c-19.26-14.022-42.974-22.294-68.621-22.295-25.647 0-49.361 8.272-68.621 22.295l-11.147 0c21.528-18.206 49.366-29.183 79.768-29.183zM339.211 123.6c0 33.876-13.628 64.569-35.702 86.895l0-10.111c17.942-20.522 28.813-47.384 28.813-76.784 0-29.401-10.871-56.262-28.813-76.784l0-10.111c22.073 22.326 35.701 53.019 35.702 86.895zM215.611 247.2c-30.402 0-58.24-10.976-79.768-29.183l11.147 0c19.26 14.022 42.974 22.294 68.621 22.295 25.647 0 49.361-8.272 68.621-22.295l11.147 0c-21.528 18.206-49.366 29.183-79.768 29.183z" fill="white" stroke="transparent"></path></g></svg></g><defs><mask></mask></defs><mask><g id="SvgjsG2270"><svg viewBox="0 0 395.52 247.2" height="247.2" width="395.52"><g><svg></svg></g><g><svg viewBox="0 0 395.52 247.2" height="247.2" width="395.52"><g transform="matrix(1,0,0,1,105.74926480814118,47.215199999999996)"><svg viewBox="0 0 184.02147038371763 152.7696" height="152.7696" width="184.02147038371763"><g><svg viewBox="0 0 184.02147038371763 152.7696" height="152.7696" width="184.02147038371763"><g><svg viewBox="0 0 101.0975294117647 152.7696" height="152.7696" width="101.0975294117647"><g id="SvgjsG2269"><svg viewBox="0 0 101.0975294117647 152.7696" height="152.7696" width="101.0975294117647" id="SvgjsSvg2268"><g><svg viewBox="0 0 101.0975294117647 152.7696" height="152.7696" width="101.0975294117647"><g transform="matrix(1,0,0,1,0,0)"><svg width="101.0975294117647" viewBox="2.73 -36.04 24.169999999999998 36.53" height="152.7696" data-palette-color="url(#ec090581-08b9-4247-b395-78ef21b98817)"><path d="M14.62 0.49L14.62 0.49Q11.79 0.49 9.47-0.17 7.15-0.83 5.44-1.89 3.74-2.95 2.73-4.17L2.73-4.17 5.35-6.69 5.66-6.69Q7.4-4.98 9.78-4.13 12.16-3.27 14.6-3.27L14.6-3.27Q17.92-3.27 20.15-4.65 22.39-6.03 22.39-9.38L22.39-9.38Q22.39-11.06 21.78-12.08 21.17-13.11 19.68-13.95 18.19-14.79 15.58-15.87L15.58-15.87 10.62-17.92Q8.18-18.95 6.43-19.95 4.69-20.95 3.77-22.45 2.86-23.95 2.86-26.44L2.86-26.44Q2.86-29.27 3.87-31.14 4.88-33.01 6.62-34.08 8.35-35.16 10.56-35.6 12.77-36.04 15.14-36.04L15.14-36.04Q17.5-36.04 19.6-35.49 21.7-34.94 23.44-33.91 25.17-32.89 26.39-31.47L26.39-31.47 23.85-28.93 23.49-28.93Q22.09-30.54 19.86-31.43 17.63-32.32 14.94-32.32L14.94-32.32Q12.96-32.32 11.29-31.84 9.62-31.35 8.62-30.19 7.62-29.03 7.62-26.95L7.62-26.95Q7.62-25.68 8.07-24.82 8.52-23.95 9.63-23.25 10.74-22.56 12.7-21.75L12.7-21.75 17.7-19.73Q20.61-18.55 22.67-17.37 24.73-16.19 25.82-14.36 26.9-12.52 26.9-9.35L26.9-9.35Q26.9-6.57 25.84-4.68 24.78-2.78 23-1.65 21.22-0.51 19.04-0.01 16.87 0.49 14.62 0.49Z" opacity="1" transform="matrix(1,0,0,1,0,0)" fill="black" class="wordmark-text-0" id="SvgjsPath2267"></path></svg></g></svg></g></svg></g></svg></g><g transform="matrix(1,0,0,1,137.1627655013647,52.96640089215095)"><svg viewBox="0 0 46.85870488235294 46.836798215698096" height="46.836798215698096" width="46.85870488235294"><g><svg xmlns="http://www.w3.org/2000/svg" xmlns:xlink="http://www.w3.org/1999/xlink" version="1.1" x="0" y="0" viewBox="0.7607695154586737 0.7749999999999999 30.439230484541326 30.425" enable-background="new 0 0 32 32" xml:space="preserve" height="46.836798215698096" width="46.85870488235294" class="icon-icon-0" data-fill-palette-color="accent" id="SvgjsSvg2266"><g fill="black"><g fill="black"><path fill="black" d="M1.5 31.2C1.3 31.2 1.1 31.1 1 31 0.8 30.8 0.7 30.6 0.8 30.3L4.5 11.2C4.6 10.9 4.8 10.6 5.1 10.6L14.7 9.3C14.9 9.3 15.2 9.3 15.3 9.5L22.5 16.7C22.7 16.9 22.7 17.1 22.7 17.3L21.4 26.9C21.4 27.2 21.1 27.5 20.8 27.5L1.6 31.2zM5.8 12.1L2.4 29.6 19.9 26.2 21.1 17.5 14.4 10.8z"></path></g><g fill="black"><rect x="5.2" y="19.8" transform="matrix(-0.7071 -0.7071 0.7071 -0.7071 -8.3465 48.7211)" fill="black" width="1.5" height="12.6"></rect></g><g fill="black"><path fill="black" d="M12 23.1C11.2 23.1 10.4 22.8 9.8 22.2S8.9 20.9 8.9 20C8.9 19.2 9.2 18.4 9.8 17.8 11 16.6 13 16.6 14.1 17.8 15.3 19 15.3 20.9 14.1 22.1 13.6 22.8 12.8 23.1 12 23.1M12 18.4C11.6 18.4 11.2 18.6 10.9 18.9S10.4 19.6 10.4 20 10.6 20.8 10.9 21.1C11.5 21.7 12.5 21.7 13.1 21.1S13.7 19.5 13.1 18.9C12.8 18.6 12.4 18.4 12 18.4"></path></g><g fill="black"><path fill="black" d="M23.8 18.7C22.9 18.7 22 18.3 21.4 17.7L14.3 10.6C13 9.3 13 7.1 14.3 5.8L19.1 1C19.4 0.7 19.9 0.7 20.2 1L31 11.8C31.1 11.9 31.2 12.1 31.2 12.3S31.1 12.7 31 12.8L26.1 17.7C25.5 18.4 24.7 18.7 23.8 18.7M19.7 2.6L15.4 6.9C14.7 7.6 14.7 8.9 15.4 9.6L22.5 16.7C23.2 17.4 24.5 17.4 25.2 16.7L29.5 12.4z"></path></g></g></svg></g></svg></g></svg></g></svg></g><g><path d="M215.611 0c30.402 0 58.24 10.976 79.768 29.183l-11.147 0c-19.26-14.022-42.974-22.294-68.621-22.295-25.647 0-49.361 8.272-68.621 22.295l-11.147 0c21.528-18.206 49.366-29.183 79.768-29.183zM339.211 123.6c0 33.876-13.628 64.569-35.702 86.895l0-10.111c17.942-20.522 28.813-47.384 28.813-76.784 0-29.401-10.871-56.262-28.813-76.784l0-10.111c22.073 22.326 35.701 53.019 35.702 86.895zM215.611 247.2c-30.402 0-58.24-10.976-79.768-29.183l11.147 0c19.26 14.022 42.974 22.294 68.621 22.295 25.647 0 49.361-8.272 68.621-22.295l11.147 0c-21.528 18.206-49.366 29.183-79.768 29.183z" fill="black" stroke="transparent"></path></g></svg></g><defs><mask></mask></defs></svg><rect width="395.52" height="247.2" fill="black" stroke="none" visibility="hidden"></rect></g></mask><mask><g id="SvgjsG2265"><svg viewBox="0 0 395.52 247.2" height="247.2" width="395.52"><g><svg></svg></g><g><svg viewBox="0 0 395.52 247.2" height="247.2" width="395.52"><g transform="matrix(1,0,0,1,105.74926480814118,47.215199999999996)"><svg viewBox="0 0 184.02147038371763 152.7696" height="152.7696" width="184.02147038371763"><g><svg viewBox="0 0 184.02147038371763 152.7696" height="152.7696" width="184.02147038371763"><g><svg viewBox="0 0 101.0975294117647 152.7696" height="152.7696" width="101.0975294117647"><g id="SvgjsG2264"><svg viewBox="0 0 101.0975294117647 152.7696" height="152.7696" width="101.0975294117647" id="SvgjsSvg2263"><g><svg viewBox="0 0 101.0975294117647 152.7696" height="152.7696" width="101.0975294117647"><g transform="matrix(1,0,0,1,0,0)"><svg width="101.0975294117647" viewBox="2.73 -36.04 24.169999999999998 36.53" height="152.7696" data-palette-color="url(#ec090581-08b9-4247-b395-78ef21b98817)"></svg></g></svg></g></svg></g></svg></g><g transform="matrix(1,0,0,1,137.1627655013647,52.96640089215095)"><svg viewBox="0 0 46.85870488235294 46.836798215698096" height="46.836798215698096" width="46.85870488235294"><g><svg xmlns="http://www.w3.org/2000/svg" xmlns:xlink="http://www.w3.org/1999/xlink" version="1.1" x="0" y="0" viewBox="0.7607695154586737 0.7749999999999999 30.439230484541326 30.425" enable-background="new 0 0 32 32" xml:space="preserve" height="46.836798215698096" width="46.85870488235294" class="icon-icon-0" data-fill-palette-color="accent" id="SvgjsSvg2262"><g fill="black"><g fill="black"><path fill="black" d="M1.5 31.2C1.3 31.2 1.1 31.1 1 31 0.8 30.8 0.7 30.6 0.8 30.3L4.5 11.2C4.6 10.9 4.8 10.6 5.1 10.6L14.7 9.3C14.9 9.3 15.2 9.3 15.3 9.5L22.5 16.7C22.7 16.9 22.7 17.1 22.7 17.3L21.4 26.9C21.4 27.2 21.1 27.5 20.8 27.5L1.6 31.2zM5.8 12.1L2.4 29.6 19.9 26.2 21.1 17.5 14.4 10.8z"></path></g><g fill="black"><rect x="5.2" y="19.8" transform="matrix(-0.7071 -0.7071 0.7071 -0.7071 -8.3465 48.7211)" fill="black" width="1.5" height="12.6"></rect></g><g fill="black"><path fill="black" d="M12 23.1C11.2 23.1 10.4 22.8 9.8 22.2S8.9 20.9 8.9 20C8.9 19.2 9.2 18.4 9.8 17.8 11 16.6 13 16.6 14.1 17.8 15.3 19 15.3 20.9 14.1 22.1 13.6 22.8 12.8 23.1 12 23.1M12 18.4C11.6 18.4 11.2 18.6 10.9 18.9S10.4 19.6 10.4 20 10.6 20.8 10.9 21.1C11.5 21.7 12.5 21.7 13.1 21.1S13.7 19.5 13.1 18.9C12.8 18.6 12.4 18.4 12 18.4"></path></g><g fill="black"><path fill="black" d="M23.8 18.7C22.9 18.7 22 18.3 21.4 17.7L14.3 10.6C13 9.3 13 7.1 14.3 5.8L19.1 1C19.4 0.7 19.9 0.7 20.2 1L31 11.8C31.1 11.9 31.2 12.1 31.2 12.3S31.1 12.7 31 12.8L26.1 17.7C25.5 18.4 24.7 18.7 23.8 18.7M19.7 2.6L15.4 6.9C14.7 7.6 14.7 8.9 15.4 9.6L22.5 16.7C23.2 17.4 24.5 17.4 25.2 16.7L29.5 12.4z"></path></g></g></svg></g></svg></g></svg></g></svg></g><g><path d="M215.611 0c30.402 0 58.24 10.976 79.768 29.183l-11.147 0c-19.26-14.022-42.974-22.294-68.621-22.295-25.647 0-49.361 8.272-68.621 22.295l-11.147 0c21.528-18.206 49.366-29.183 79.768-29.183zM339.211 123.6c0 33.876-13.628 64.569-35.702 86.895l0-10.111c17.942-20.522 28.813-47.384 28.813-76.784 0-29.401-10.871-56.262-28.813-76.784l0-10.111c22.073 22.326 35.701 53.019 35.702 86.895zM215.611 247.2c-30.402 0-58.24-10.976-79.768-29.183l11.147 0c19.26 14.022 42.974 22.294 68.621 22.295 25.647 0 49.361-8.272 68.621-22.295l11.147 0c-21.528 18.206-49.366 29.183-79.768 29.183z" fill="black" stroke="transparent"></path></g></svg></g><defs><mask></mask></defs><mask><g id="SvgjsG2261"><svg viewBox="0 0 395.52 247.2" height="247.2" width="395.52"><g><svg></svg></g><g><svg viewBox="0 0 395.52 247.2" height="247.2" width="395.52"><g transform="matrix(1,0,0,1,105.74926480814118,47.215199999999996)"><svg viewBox="0 0 184.02147038371763 152.7696" height="152.7696" width="184.02147038371763"><g><svg viewBox="0 0 184.02147038371763 152.7696" height="152.7696" width="184.02147038371763"><g><svg viewBox="0 0 101.0975294117647 152.7696" height="152.7696" width="101.0975294117647"><g id="SvgjsG2260"><svg viewBox="0 0 101.0975294117647 152.7696" height="152.7696" width="101.0975294117647" id="SvgjsSvg2259"><g><svg viewBox="0 0 101.0975294117647 152.7696" height="152.7696" width="101.0975294117647"><g transform="matrix(1,0,0,1,0,0)"><svg width="101.0975294117647" viewBox="2.73 -36.04 24.169999999999998 36.53" height="152.7696" data-palette-color="url(#ec090581-08b9-4247-b395-78ef21b98817)"><path d="M14.62 0.49L14.62 0.49Q11.79 0.49 9.47-0.17 7.15-0.83 5.44-1.89 3.74-2.95 2.73-4.17L2.73-4.17 5.35-6.69 5.66-6.69Q7.4-4.98 9.78-4.13 12.16-3.27 14.6-3.27L14.6-3.27Q17.92-3.27 20.15-4.65 22.39-6.03 22.39-9.38L22.39-9.38Q22.39-11.06 21.78-12.08 21.17-13.11 19.68-13.95 18.19-14.79 15.58-15.87L15.58-15.87 10.62-17.92Q8.18-18.95 6.43-19.95 4.69-20.95 3.77-22.45 2.86-23.95 2.86-26.44L2.86-26.44Q2.86-29.27 3.87-31.14 4.88-33.01 6.62-34.08 8.35-35.16 10.56-35.6 12.77-36.04 15.14-36.04L15.14-36.04Q17.5-36.04 19.6-35.49 21.7-34.94 23.44-33.91 25.17-32.89 26.39-31.47L26.39-31.47 23.85-28.93 23.49-28.93Q22.09-30.54 19.86-31.43 17.63-32.32 14.94-32.32L14.94-32.32Q12.96-32.32 11.29-31.84 9.62-31.35 8.62-30.19 7.62-29.03 7.62-26.95L7.62-26.95Q7.62-25.68 8.07-24.82 8.52-23.95 9.63-23.25 10.74-22.56 12.7-21.75L12.7-21.75 17.7-19.73Q20.61-18.55 22.67-17.37 24.73-16.19 25.82-14.36 26.9-12.52 26.9-9.35L26.9-9.35Q26.9-6.57 25.84-4.68 24.78-2.78 23-1.65 21.22-0.51 19.04-0.01 16.87 0.49 14.62 0.49Z" opacity="1" transform="matrix(1,0,0,1,0,0)" fill="black" class="wordmark-text-0" id="SvgjsPath2258"></path></svg></g></svg></g></svg></g></svg></g><g transform="matrix(1,0,0,1,137.1627655013647,52.96640089215095)"><svg viewBox="0 0 46.85870488235294 46.836798215698096" height="46.836798215698096" width="46.85870488235294"><g><svg xmlns="http://www.w3.org/2000/svg" xmlns:xlink="http://www.w3.org/1999/xlink" version="1.1" x="0" y="0" viewBox="0.7607695154586737 0.7749999999999999 30.439230484541326 30.425" enable-background="new 0 0 32 32" xml:space="preserve" height="46.836798215698096" width="46.85870488235294" class="icon-icon-0" data-fill-palette-color="accent" id="SvgjsSvg2257"><g fill="black"><g fill="black"><path fill="black" d="M1.5 31.2C1.3 31.2 1.1 31.1 1 31 0.8 30.8 0.7 30.6 0.8 30.3L4.5 11.2C4.6 10.9 4.8 10.6 5.1 10.6L14.7 9.3C14.9 9.3 15.2 9.3 15.3 9.5L22.5 16.7C22.7 16.9 22.7 17.1 22.7 17.3L21.4 26.9C21.4 27.2 21.1 27.5 20.8 27.5L1.6 31.2zM5.8 12.1L2.4 29.6 19.9 26.2 21.1 17.5 14.4 10.8z"></path></g><g fill="black"><rect x="5.2" y="19.8" transform="matrix(-0.7071 -0.7071 0.7071 -0.7071 -8.3465 48.7211)" fill="black" width="1.5" height="12.6"></rect></g><g fill="black"><path fill="black" d="M12 23.1C11.2 23.1 10.4 22.8 9.8 22.2S8.9 20.9 8.9 20C8.9 19.2 9.2 18.4 9.8 17.8 11 16.6 13 16.6 14.1 17.8 15.3 19 15.3 20.9 14.1 22.1 13.6 22.8 12.8 23.1 12 23.1M12 18.4C11.6 18.4 11.2 18.6 10.9 18.9S10.4 19.6 10.4 20 10.6 20.8 10.9 21.1C11.5 21.7 12.5 21.7 13.1 21.1S13.7 19.5 13.1 18.9C12.8 18.6 12.4 18.4 12 18.4"></path></g><g fill="black"><path fill="black" d="M23.8 18.7C22.9 18.7 22 18.3 21.4 17.7L14.3 10.6C13 9.3 13 7.1 14.3 5.8L19.1 1C19.4 0.7 19.9 0.7 20.2 1L31 11.8C31.1 11.9 31.2 12.1 31.2 12.3S31.1 12.7 31 12.8L26.1 17.7C25.5 18.4 24.7 18.7 23.8 18.7M19.7 2.6L15.4 6.9C14.7 7.6 14.7 8.9 15.4 9.6L22.5 16.7C23.2 17.4 24.5 17.4 25.2 16.7L29.5 12.4z"></path></g></g></svg></g></svg></g></svg></g></svg></g><g><path d="M215.611 0c30.402 0 58.24 10.976 79.768 29.183l-11.147 0c-19.26-14.022-42.974-22.294-68.621-22.295-25.647 0-49.361 8.272-68.621 22.295l-11.147 0c21.528-18.206 49.366-29.183 79.768-29.183zM339.211 123.6c0 33.876-13.628 64.569-35.702 86.895l0-10.111c17.942-20.522 28.813-47.384 28.813-76.784 0-29.401-10.871-56.262-28.813-76.784l0-10.111c22.073 22.326 35.701 53.019 35.702 86.895zM215.611 247.2c-30.402 0-58.24-10.976-79.768-29.183l11.147 0c19.26 14.022 42.974 22.294 68.621 22.295 25.647 0 49.361-8.272 68.621-22.295l11.147 0c-21.528 18.206-49.366 29.183-79.768 29.183z" fill="black" stroke="transparent"></path></g></svg></g><defs><mask></mask></defs></svg><rect width="395.52" height="247.2" fill="black" stroke="none" visibility="hidden"></rect></g></mask></svg><rect width="395.52" height="247.2" fill="black" stroke="none" visibility="hidden"></rect></g></mask></svg><rect width="395.52" height="247.2" fill="black" stroke="none" visibility="hidden"></rect></g></mask><linearGradient x1="0" x2="1" y1="0.578" y2="0.595" id="8736159b-3985-44ba-8352-327cf3c48209"><stop stop-color="#6ee2f5" offset="0"></stop><stop stop-color="#6454f0" offset="1"></stop></linearGradient></svg><rect width="395.52" height="247.2" fill="none" stroke="none" visibility="hidden"></rect></g></svg></g></svg>